<svg width="172" height="172" viewBox="0 0 172 172" fill="none" xmlns="http://www.w3.org/2000/svg">
<g clip-path="url(#clip0_511_747)">
<path d="M144.453 103.234C143.411 103.234 142.37 102.797 141.631 101.923C140.321 100.378 140.522 98.0265 142.068 96.7164C144.352 94.8015 145.696 91.6773 145.662 88.3851C145.662 85.1601 144.352 82.2711 142.101 80.457C140.522 79.1804 140.287 76.8289 141.564 75.25C142.84 73.6711 145.192 73.4359 146.771 74.7125C150.701 77.9375 153.019 82.8757 153.053 88.3179C153.086 93.8609 150.836 99.0008 146.838 102.36C146.133 102.931 145.293 103.234 144.453 103.234Z" fill="#F93535"/>
<path d="M159.671 112.237C158.63 112.237 157.588 111.8 156.883 110.96C155.539 109.415 155.741 107.063 157.286 105.753C161.922 101.755 164.677 95.2046 164.643 88.2171C164.576 81.364 161.922 75.25 157.353 71.4203C155.774 70.1101 155.573 67.7922 156.883 66.2132C158.193 64.6343 160.511 64.4328 162.09 65.7429C168.338 70.9836 171.967 79.1468 172.034 88.15C172.101 97.2539 168.406 105.921 162.124 111.33C161.418 111.934 160.578 112.237 159.705 112.237H159.671Z" fill="#F93535"/>
<path d="M27.5468 103.234C26.7069 103.234 25.8671 102.965 25.1616 102.36C21.1639 99.0008 18.8796 93.8609 18.9468 88.3179C18.9803 82.8757 21.2647 77.9375 25.2288 74.7125C26.8077 73.4359 29.1257 73.6711 30.4358 75.25C31.7124 76.8289 31.4772 79.1468 29.8983 80.457C27.6811 82.2711 26.371 85.1601 26.3374 88.3851C26.3374 91.6773 27.6475 94.8015 29.9319 96.7164C31.5108 98.0265 31.6788 100.344 30.3686 101.923C29.6296 102.797 28.5882 103.234 27.5468 103.234Z" fill="#F93535"/>
<path d="M12.3288 112.237C11.489 112.237 10.6155 111.934 9.91008 111.33C3.62805 105.955 -0.0672634 97.2875 -7.58911e-05 88.15C0.0671116 79.1132 3.69524 70.95 9.94367 65.7429C11.5226 64.4328 13.8405 64.6343 15.1507 66.2132C16.4609 67.7922 16.2593 70.1101 14.6804 71.4203C10.078 75.25 7.42414 81.364 7.39055 88.2171C7.32336 95.2046 10.078 101.755 14.7476 105.753C16.2929 107.097 16.4609 109.415 15.1507 110.96C14.4116 111.8 13.3702 112.237 12.3624 112.237H12.3288Z" fill="#F93535"/>
<path d="M126.446 114.823V75.4851C126.446 57.3109 114.386 41.8914 97.8246 36.8187V30.3351C97.8246 23.8179 92.5168 18.5101 85.9996 18.5101C79.4824 18.5101 74.1746 23.8179 74.1746 30.3351V36.8187C57.6129 41.8914 45.5527 57.3109 45.5527 75.4851V114.823C39.3715 115.159 34.4668 120.266 34.4668 126.548V127.018C34.4668 133.468 39.741 138.742 46.191 138.742H68.0606C69.673 147.174 77.0973 153.523 85.9996 153.523C94.902 153.523 102.293 147.141 103.939 138.742H125.808C132.258 138.742 137.532 133.468 137.532 127.018V126.548C137.532 120.299 132.628 115.159 126.446 114.823ZM85.9996 146.133C81.2965 146.133 77.2988 143.143 75.7871 138.944H96.2457C94.734 143.109 90.7027 146.133 86.0332 146.133H85.9996ZM81.5652 35.0383V30.3015C81.5652 27.8492 83.5473 25.8672 85.9996 25.8672C88.452 25.8672 90.434 27.8492 90.434 30.3015V35.0383H81.5652ZM52.9434 75.4851C52.9434 57.2437 67.7582 42.4289 85.9996 42.4289C104.241 42.4289 119.056 57.2437 119.056 75.4851V114.823H52.9434V75.4851ZM130.142 126.984C130.142 129.37 128.193 131.318 125.808 131.318H46.191C43.8059 131.318 41.8574 129.37 41.8574 126.984V126.514C41.8574 124.129 43.8059 122.18 46.191 122.18H125.808C128.193 122.18 130.142 124.129 130.142 126.514V126.984Z" fill="#303030"/>
</g>
<defs>
<clipPath id="clip0_511_747">
<rect width="172" height="172" fill="white"/>
</clipPath>
</defs>
</svg>
