<svg width="93" height="93" viewBox="0 0 93 93" fill="none" xmlns="http://www.w3.org/2000/svg">
<path d="M79.6964 56.5868H43.8856C42.7895 56.5868 41.9008 55.6981 41.9008 54.602C41.9008 53.5058 42.7895 52.6172 43.8856 52.6172H79.6964C80.7926 52.6172 81.6812 53.5058 81.6812 54.602C81.6812 55.6981 80.7926 56.5868 79.6964 56.5868ZM48.1907 39.0872H12.0414C10.9453 39.0872 10.0566 38.1986 10.0566 37.1024C10.0566 36.0063 10.9453 35.1177 12.0414 35.1177H48.1907C49.2869 35.1177 50.1755 36.0063 50.1755 37.1024C50.1755 38.1986 49.2869 39.0872 48.1907 39.0872Z" fill="#F93535"/>
<path d="M91.8006 55.4195L86.0594 49.6781C85.6872 49.306 85.1823 49.0967 84.656 49.0967C84.1297 49.0967 83.6247 49.3058 83.2526 49.6781L80.7967 52.1339L74.164 45.501C70.3926 41.7298 66.812 39.9038 62.8959 39.7547C59.3322 39.6187 55.7946 40.8568 51.6951 42.2898C50.8947 42.5695 50.0828 42.8533 49.2456 43.1368C49.529 42.2994 49.8128 41.4875 50.0925 40.6871C51.5253 36.5874 52.7631 33.0468 52.6276 29.4863C52.4786 25.5701 50.6526 21.9896 46.8812 18.2182L40.2482 11.5855L42.7039 9.12976C43.4791 8.35462 43.4791 7.0979 42.7039 6.32275L36.9627 0.581357C36.5905 0.209123 36.0855 0 35.5591 0C35.0328 0 34.528 0.209123 34.1557 0.581357L0.581357 34.1555C0.209123 34.5278 0 35.0326 0 35.5591C0 36.0856 0.209123 36.5903 0.581357 36.9625L6.32275 42.7039C6.71033 43.0915 7.21825 43.2853 7.72617 43.2853C8.23409 43.2853 8.74201 43.0915 9.12958 42.7039L11.5853 40.2482L18.218 46.881C21.9894 50.6524 25.57 52.4782 29.4861 52.6274C29.6656 52.6343 29.8448 52.6375 30.0245 52.6375C33.4048 52.6375 36.794 51.453 40.6869 50.0923C41.4873 49.8127 42.2992 49.5288 43.1364 49.2454C42.853 50.0828 42.5692 50.8947 42.2895 51.6951C40.8567 55.7948 39.6189 59.3354 39.7544 62.8959C39.9034 66.812 41.7294 70.3926 45.5008 74.164L52.1336 80.7969L49.6779 83.2526C48.9027 84.0277 48.9027 85.2845 49.6779 86.0596L55.4191 91.801C55.7911 92.1731 56.2962 92.3824 56.8225 92.3824C57.3488 92.3824 57.8537 92.1732 58.2259 91.801L91.8003 58.2266C92.5758 57.4511 92.5758 56.1946 91.8006 55.4195ZM7.72617 38.4935L4.79159 35.5589L35.5591 4.79159L38.4935 7.72599L7.72617 38.4935ZM39.3771 46.3451C31.4434 49.1182 27.4613 50.5102 21.025 44.0742L14.3923 37.4414L37.4412 14.3923L44.0742 21.025C50.5102 27.4609 49.1182 31.4433 46.3451 39.3771C45.7962 40.9476 45.1851 42.696 44.5981 44.5981C42.6962 45.1851 40.9476 45.7962 39.3771 46.3451ZM48.3078 71.357C41.8718 64.9211 43.2638 60.9387 46.0369 53.0049C46.5858 51.4344 47.1969 49.686 47.7837 47.7839C49.6858 47.1971 51.434 46.586 53.0047 46.0371C60.9386 43.264 64.9209 41.872 71.357 48.308L77.9897 54.9409L54.9408 77.9897L48.3078 71.357ZM56.8229 87.5902L53.8885 84.6558L84.656 53.8883L87.5904 56.8227L56.8229 87.5902Z" fill="#1E1E1E"/>
</svg>
