<svg width="25" height="25" viewBox="0 0 25 25" fill="none" xmlns="http://www.w3.org/2000/svg">
<path d="M13.9423 12.4961C13.9423 12.7814 13.8577 13.0602 13.6992 13.2975C13.5408 13.5347 13.3155 13.7195 13.0519 13.8287C12.7884 13.9379 12.4984 13.9665 12.2186 13.9108C11.9388 13.8551 11.6818 13.7178 11.4801 13.516C11.2784 13.3143 11.1411 13.0573 11.0854 12.7775C11.0298 12.4977 11.0583 12.2076 11.1675 11.9441C11.2766 11.6805 11.4615 11.4552 11.6987 11.2967C11.9359 11.1382 12.2147 11.0536 12.5 11.0536C12.8825 11.0536 13.2494 11.2056 13.5199 11.4761C13.7903 11.7466 13.9423 12.1135 13.9423 12.4961ZM7.21154 11.0536C6.92628 11.0536 6.64742 11.1382 6.41023 11.2967C6.17305 11.4552 5.98818 11.6805 5.87902 11.9441C5.76985 12.2076 5.74129 12.4977 5.79694 12.7775C5.8526 13.0573 5.98996 13.3143 6.19167 13.516C6.39338 13.7178 6.65038 13.8551 6.93016 13.9108C7.20994 13.9665 7.49994 13.9379 7.76349 13.8287C8.02703 13.7195 8.25229 13.5347 8.41077 13.2975C8.56926 13.0602 8.65385 12.7814 8.65385 12.4961C8.65385 12.1135 8.50189 11.7466 8.2314 11.4761C7.96092 11.2056 7.59406 11.0536 7.21154 11.0536ZM17.7885 11.0536C17.5032 11.0536 17.2243 11.1382 16.9872 11.2967C16.75 11.4552 16.5651 11.6805 16.4559 11.9441C16.3468 12.2076 16.3182 12.4977 16.3739 12.7775C16.4295 13.0573 16.5669 13.3143 16.7686 13.516C16.9703 13.7178 17.2273 13.8551 17.5071 13.9108C17.7869 13.9665 18.0769 13.9379 18.3404 13.8287C18.604 13.7195 18.8292 13.5347 18.9877 13.2975C19.1462 13.0602 19.2308 12.7814 19.2308 12.4961C19.2308 12.1135 19.0788 11.7466 18.8083 11.4761C18.5378 11.2056 18.171 11.0536 17.7885 11.0536ZM25 12.4961C25.0005 14.6544 24.4422 16.776 23.3795 18.6545C22.3169 20.533 20.786 22.1044 18.9359 23.2156C17.0859 24.3269 14.9797 24.9402 12.8223 24.9958C10.6649 25.0515 8.52988 24.5476 6.625 23.5332L2.53245 24.8975C2.19361 25.0105 1.83 25.0269 1.48236 24.9449C1.13473 24.8628 0.816811 24.6856 0.564244 24.433C0.311677 24.1804 0.134441 23.8624 0.0524008 23.5148C-0.0296388 23.1671 -0.01324 22.8034 0.0997593 22.4646L1.46394 18.3716C0.572294 16.6951 0.0742753 14.8374 0.00768911 12.9396C-0.0588971 11.0418 0.307699 9.15377 1.07965 7.41882C1.8516 5.68388 3.00862 4.14761 4.46288 2.92663C5.91714 1.70566 7.63042 0.832064 9.47268 0.372162C11.3149 -0.0877398 13.2377 -0.121862 15.0951 0.272385C16.9526 0.666632 18.6957 1.47889 20.1924 2.64749C21.6891 3.8161 22.8999 5.31035 23.7329 7.01681C24.5659 8.72328 24.9992 10.5971 25 12.4961ZM23.0769 12.4961C23.0765 10.8735 22.7028 9.27272 21.9847 7.81767C21.2667 6.36262 20.2236 5.09228 18.9361 4.10492C17.6486 3.11756 16.1512 2.43966 14.5598 2.12367C12.9684 1.80767 11.3257 1.86205 9.75869 2.28259C8.19168 2.70313 6.74242 3.47857 5.52302 4.54891C4.30362 5.61924 3.34678 6.95579 2.72652 8.45513C2.10625 9.95448 1.8392 11.5764 1.94603 13.1955C2.05285 14.8146 2.53068 16.3874 3.34255 17.7922C3.41069 17.9102 3.453 18.0413 3.46667 18.1768C3.48035 18.3123 3.46508 18.4492 3.42187 18.5784L1.92308 23.074L6.41827 21.5751C6.51618 21.5417 6.61891 21.5246 6.72236 21.5246C6.89123 21.5249 7.05705 21.5697 7.20312 21.6544C8.81106 22.5848 10.6357 23.0753 12.4933 23.0764C14.351 23.0776 16.1762 22.5895 17.7853 21.6611C19.3944 20.7327 20.7307 19.3969 21.6596 17.788C22.5885 16.1791 23.0773 14.3539 23.0769 12.4961Z" fill="#F93535"/>
</svg>
