<svg width="26" height="26" viewBox="0 0 26 26" fill="none" xmlns="http://www.w3.org/2000/svg">
<path id="Vector" d="M22.75 18.417H20.0417C19.2097 18.417 18.4503 18.7311 17.875 19.2468V14.0838C17.875 12.2921 16.4168 10.834 14.625 10.834H11.375C9.58317 10.834 8.125 12.2921 8.125 14.0838V15.9969C7.54975 15.4813 6.79033 15.1671 5.95833 15.1671H3.25C1.45817 15.1671 0 16.6252 0 18.417V22.7501C0 24.5419 1.45817 26 3.25 26H22.75C24.5418 26 26 24.5419 26 22.7501V21.6668C26 19.8751 24.5418 18.417 22.75 18.417ZM9.20833 14.0838C9.20833 12.889 10.1801 11.9173 11.375 11.9173H14.625C15.8199 11.9173 16.7917 12.889 16.7917 14.0838V24.9167H9.20833V14.0838ZM1.08333 22.7501V18.417C1.08333 17.2221 2.05508 16.2504 3.25 16.2504H5.95833C7.15325 16.2504 8.125 17.2221 8.125 18.417V24.9167H3.25C2.05508 24.9167 1.08333 23.945 1.08333 22.7501ZM24.9167 22.7501C24.9167 23.945 23.9449 24.9167 22.75 24.9167H17.875V21.6668C17.875 20.472 18.8468 19.5003 20.0417 19.5003H22.75C23.9449 19.5003 24.9167 20.472 24.9167 21.6668V22.7501ZM9.09025 4.37107L10.3025 5.35794L9.82367 6.79763C9.67417 7.27211 9.84208 7.79101 10.2408 8.09C10.4433 8.24057 10.6925 8.3229 10.9427 8.3229C11.1746 8.3229 11.3999 8.25466 11.596 8.12466L13.0108 7.17787L14.4517 8.116C14.8688 8.3879 15.4115 8.36407 15.8069 8.06291C16.2023 7.75959 16.3638 7.23745 16.2023 6.7543L15.7094 5.34928L16.9163 4.36673C17.2922 4.05041 17.4319 3.52827 17.2629 3.06679C17.0939 2.60531 16.6519 2.29549 16.1601 2.29549H14.6456L14.1007 0.764801C13.9306 0.307654 13.4886 0 13 0C12.5114 0 12.0705 0.307654 11.8972 0.771301L11.3544 2.2944H9.83992C9.35025 2.2944 8.90717 2.60314 8.73925 3.06137C8.56917 3.52069 8.70675 4.04391 9.08917 4.3689L9.09025 4.37107ZM9.83992 3.37878H11.7368C11.9665 3.37878 12.1702 3.2347 12.2471 3.01912L12.9177 1.13637H13.0823L13.7529 3.01912C13.8288 3.2347 14.0335 3.37878 14.2632 3.37878H16.1601L16.2251 3.5326L14.7301 4.7513C14.5524 4.89538 14.4842 5.13479 14.5611 5.35036L15.1797 7.11395L15.041 7.20928L13.3012 6.07616C13.1192 5.95808 12.8841 5.96025 12.7043 6.07941L10.9948 7.22445C10.9785 7.23528 10.9622 7.2407 10.9427 7.2407L10.8539 7.13129L11.4487 5.34494C11.5191 5.13154 11.4508 4.89538 11.2764 4.75455L9.77383 3.5326L9.841 3.38094L9.83992 3.37878Z" fill="#F93535"/>
</svg>
