<svg width="20" height="20" viewBox="0 0 20 20" fill="none" xmlns="http://www.w3.org/2000/svg">
<g id="Group 371">
<path id="Vector" d="M9.96168 1.66686C11.0671 1.67048 12.1608 1.8933 13.1795 2.32241C14.1982 2.75153 15.1217 3.37841 15.8965 4.1668H13.2949C13.0739 4.1668 12.862 4.25459 12.7057 4.41087C12.5494 4.56715 12.4616 4.7791 12.4616 5.00011C12.4616 5.22112 12.5494 5.43308 12.7057 5.58935C12.862 5.74563 13.0739 5.83343 13.2949 5.83343H16.7474C17.1577 5.8332 17.5512 5.6701 17.8413 5.37994C18.1315 5.08978 18.2946 4.69631 18.2948 4.28596V0.833544C18.2948 0.612535 18.207 0.400578 18.0507 0.244302C17.8945 0.0880253 17.6825 0.000229965 17.4615 0.000229965C17.2405 0.000229965 17.0285 0.0880253 16.8723 0.244302C16.716 0.400578 16.6282 0.612535 16.6282 0.833544V2.56517C15.2509 1.32474 13.5554 0.492226 11.7317 0.16085C9.90803 -0.170526 8.02809 0.012323 6.30243 0.68892C4.57677 1.36552 3.07353 2.50915 1.96105 3.99174C0.848573 5.47433 0.170784 7.23734 0.00358663 9.08335C-0.00717696 9.19939 0.00634972 9.31641 0.0433048 9.42694C0.0802599 9.53747 0.139833 9.63909 0.218229 9.72532C0.296624 9.81156 0.392123 9.88052 0.49864 9.92781C0.605157 9.9751 0.720357 9.99968 0.8369 9.99999C1.04072 10.0026 1.23817 9.92903 1.3906 9.7937C1.54304 9.65838 1.63948 9.47103 1.66105 9.26834C1.84655 7.19402 2.801 5.26402 4.33688 3.8575C5.87277 2.45098 7.87908 1.6696 9.96168 1.66686Z" fill="white"/>
<path id="Vector_2" d="M19.0877 9.99994C18.8838 9.99735 18.6864 10.0709 18.534 10.2062C18.3815 10.3416 18.2851 10.5289 18.2635 10.7316C18.1258 12.3176 17.536 13.8308 16.5641 15.0917C15.5922 16.3525 14.2791 17.3082 12.7804 17.8452C11.2818 18.3823 9.66055 18.4781 8.10904 18.1215C6.55754 17.7649 5.1409 16.9707 4.02718 15.8331H6.62879C6.8498 15.8331 7.06175 15.7453 7.21803 15.5891C7.37431 15.4328 7.4621 15.2208 7.4621 14.9998C7.4621 14.7788 7.37431 14.5669 7.21803 14.4106C7.06175 14.2543 6.8498 14.1665 6.62879 14.1665H3.17637C2.97312 14.1664 2.77185 14.2064 2.58405 14.2841C2.39626 14.3618 2.22562 14.4758 2.0819 14.6195C1.93819 14.7632 1.82421 14.9339 1.74648 15.1217C1.66875 15.3095 1.6288 15.5107 1.62891 15.714V19.1664C1.62891 19.3874 1.7167 19.5994 1.87298 19.7556C2.02925 19.9119 2.24121 19.9997 2.46222 19.9997C2.68323 19.9997 2.89519 19.9119 3.05146 19.7556C3.20774 19.5994 3.29553 19.3874 3.29553 19.1664V17.4348C4.67286 18.6752 6.3683 19.5077 8.192 19.8391C10.0157 20.1705 11.8956 19.9876 13.6213 19.311C15.347 18.6344 16.8502 17.4908 17.9627 16.0082C19.0752 14.5256 19.7529 12.7626 19.9201 10.9166C19.9309 10.8005 19.9174 10.6835 19.8804 10.573C19.8435 10.4625 19.7839 10.3609 19.7055 10.2746C19.6271 10.1884 19.5316 10.1194 19.4251 10.0721C19.3186 10.0248 19.2042 10.0003 19.0877 9.99994Z" fill="white"/>
</g>
</svg>
