<svg width="56" height="77" viewBox="0 0 56 77" fill="none" xmlns="http://www.w3.org/2000/svg">
<path d="M28 37.625C31.8073 37.625 35.5291 36.5217 38.6947 34.4545C41.8604 32.3874 44.3277 29.4493 45.7847 26.0117C47.2417 22.5742 47.6229 18.7916 46.8801 15.1424C46.1373 11.4931 44.304 8.14104 41.6118 5.51006C38.9196 2.87909 35.4896 1.08737 31.7555 0.361485C28.0213 -0.364399 24.1508 0.00815124 20.6333 1.43202C17.1159 2.8559 14.1094 5.26714 11.9942 8.36084C9.87899 11.4545 8.75 15.0917 8.75 18.8125C8.7551 23.8004 10.7849 28.5825 14.3938 32.1095C18.0028 35.6364 22.8961 37.62 28 37.625ZM28 6.27084C30.5382 6.27084 33.0194 7.0064 35.1298 8.38449C37.2402 9.76259 38.8851 11.7213 39.8564 14.013C40.8278 16.3047 41.0819 18.8264 40.5867 21.2593C40.0916 23.6921 38.8693 25.9268 37.0745 27.6808C35.2798 29.4348 32.9931 30.6293 30.5037 31.1132C28.0142 31.5971 25.4339 31.3487 23.0889 30.3995C20.7439 29.4502 18.7396 27.8427 17.3295 25.7803C15.9193 23.7178 15.1667 21.293 15.1667 18.8125C15.1667 15.4862 16.5187 12.2962 18.9255 9.94421C21.3322 7.59219 24.5964 6.27084 28 6.27084Z" fill="#F93535"/>
<path d="M28 44.625C20.5765 44.6336 13.4593 47.7062 8.2101 53.1686C2.96087 58.6311 0.00823465 66.0374 0 73.7625C0 74.6211 0.327777 75.4446 0.911223 76.0518C1.49467 76.6589 2.28599 77 3.11111 77C3.93623 77 4.72755 76.6589 5.311 76.0518C5.89444 75.4446 6.22222 74.6211 6.22222 73.7625C6.22222 67.752 8.51666 61.9877 12.6008 57.7377C16.6849 53.4877 22.2242 51.1 28 51.1C33.7758 51.1 39.3151 53.4877 43.3992 57.7377C47.4833 61.9877 49.7778 67.752 49.7778 73.7625C49.7778 74.6211 50.1056 75.4446 50.689 76.0518C51.2724 76.6589 52.0638 77 52.8889 77C53.714 77 54.5053 76.6589 55.0888 76.0518C55.6722 75.4446 56 74.6211 56 73.7625C55.9918 66.0374 53.0391 58.6311 47.7899 53.1686C42.5407 47.7062 35.4235 44.6336 28 44.625Z" fill="#F93535"/>
</svg>
