<svg width="77" height="77" viewBox="0 0 77 77" fill="none" xmlns="http://www.w3.org/2000/svg">
<path d="M77 32.0835C77.0001 31.8493 76.9743 31.6158 76.923 31.3873L72.7522 12.5609C71.9772 8.98754 69.9973 5.78931 67.1444 3.50241C64.2915 1.21552 60.739 -0.0209708 57.0827 0.000269142H19.9173C16.2632 -0.0180193 12.7138 1.21982 9.86347 3.50647C7.01318 5.79312 5.03515 8.98971 4.26067 12.5609L0.0770044 31.3873C0.0256971 31.6158 -0.000127242 31.8493 4.39348e-06 32.0835V35.2918C-0.00258411 38.4154 1.13871 41.4318 3.20834 43.7714V60.9584C3.21343 65.2113 4.90517 69.2886 7.91246 72.2959C10.9198 75.3032 14.9971 76.9949 19.25 77H57.75C62.003 76.9949 66.0803 75.3032 69.0875 72.2959C72.0948 69.2886 73.7866 65.2113 73.7917 60.9584V43.7714C75.8613 41.4318 77.0026 38.4154 77 35.2918V32.0835ZM6.41667 32.4332L10.5233 13.9533C10.9887 11.8109 12.1757 9.89337 13.8857 8.5215C15.5957 7.14963 17.725 6.40666 19.9173 6.41691H22.4583V16.0419C22.4583 16.8928 22.7964 17.7088 23.398 18.3105C23.9997 18.9122 24.8158 19.2502 25.6667 19.2502C26.5176 19.2502 27.3336 18.9122 27.9353 18.3105C28.537 17.7088 28.875 16.8928 28.875 16.0419V6.41691H48.125V16.0419C48.125 16.8928 48.463 17.7088 49.0647 18.3105C49.6664 18.9122 50.4824 19.2502 51.3333 19.2502C52.1842 19.2502 53.0003 18.9122 53.602 18.3105C54.2037 17.7088 54.5417 16.8928 54.5417 16.0419V6.41691H57.0827C59.275 6.40666 61.4043 7.14963 63.1143 8.5215C64.8243 9.89337 66.0113 11.8109 66.4767 13.9533L70.5833 32.4332V35.2918C70.5833 36.9936 69.9073 38.6257 68.7039 39.8291C67.5006 41.0324 65.8685 41.7085 64.1667 41.7085H60.9583C59.2565 41.7085 57.6244 41.0324 56.4211 39.8291C55.2177 38.6257 54.5417 36.9936 54.5417 35.2918C54.5417 34.4409 54.2037 33.6249 53.602 33.0232C53.0003 32.4215 52.1842 32.0835 51.3333 32.0835C50.4824 32.0835 49.6664 32.4215 49.0647 33.0232C48.463 33.6249 48.125 34.4409 48.125 35.2918C48.125 36.9936 47.449 38.6257 46.2456 39.8291C45.0422 41.0324 43.4101 41.7085 41.7083 41.7085H35.2917C33.5899 41.7085 31.9578 41.0324 30.7544 39.8291C29.551 38.6257 28.875 36.9936 28.875 35.2918C28.875 34.4409 28.537 33.6249 27.9353 33.0232C27.3336 32.4215 26.5176 32.0835 25.6667 32.0835C24.8158 32.0835 23.9997 32.4215 23.398 33.0232C22.7964 33.6249 22.4583 34.4409 22.4583 35.2918C22.4583 36.9936 21.7823 38.6257 20.5789 39.8291C19.3756 41.0324 17.7435 41.7085 16.0417 41.7085H12.8333C11.1315 41.7085 9.49943 41.0324 8.29607 39.8291C7.09271 38.6257 6.41667 36.9936 6.41667 35.2918V32.4332ZM57.75 70.5834H19.25C16.6973 70.5834 14.2491 69.5693 12.4441 67.7643C10.6391 65.9592 9.625 63.5111 9.625 60.9584V47.7176C10.6728 47.989 11.7509 48.1259 12.8333 48.1251H16.0417C17.8634 48.1261 19.6644 47.7382 21.3242 46.9874C22.984 46.2366 24.4645 45.1402 25.6667 43.7714C26.8688 45.1402 28.3493 46.2366 30.0091 46.9874C31.669 47.7382 33.4699 48.1261 35.2917 48.1251H41.7083C43.5301 48.1261 45.331 47.7382 46.9909 46.9874C48.6507 46.2366 50.1312 45.1402 51.3333 43.7714C52.5355 45.1402 54.016 46.2366 55.6758 46.9874C57.3356 47.7382 59.1366 48.1261 60.9583 48.1251H64.1667C65.2491 48.1259 66.3272 47.989 67.375 47.7176V60.9584C67.375 63.5111 66.3609 65.9592 64.5559 67.7643C62.7509 69.5693 60.3027 70.5834 57.75 70.5834Z" fill="#F93535"/>
</svg>
