<svg width="25" height="20" viewBox="0 0 25 20" fill="none" xmlns="http://www.w3.org/2000/svg">
<path d="M24.6987 2.98917C23.9018 1.61543 21.7987 1.3061 18.605 2.08723C17.1264 0.944118 15.3568 0.238536 13.4973 0.0506376C11.6377 -0.137261 9.76273 0.200057 8.08531 1.02427C6.40789 1.84848 4.99528 3.12655 4.00796 4.71329C3.02064 6.30002 2.49819 8.13181 2.49995 10.0006C2.50008 10.4292 2.52722 10.8574 2.5812 11.2827C-0.303143 14.2707 -0.261477 16.0413 0.302059 17.012C0.833303 17.9327 1.94162 18.3326 3.39994 18.3326C4.41245 18.3116 5.419 18.1718 6.39887 17.916C7.87761 19.058 9.64697 19.7626 11.5061 19.9497C13.3651 20.1369 15.2395 19.7991 16.9162 18.9748C18.593 18.1505 20.005 16.8726 20.992 15.2863C21.9789 13.7 22.5013 11.8688 22.4997 10.0006C22.4999 9.57402 22.4732 9.14789 22.4195 8.72473C23.7216 7.37077 24.5883 6.08452 24.883 4.98365C25.0862 4.22127 25.0247 3.55054 24.6987 2.98917ZM12.4998 1.66854C14.3873 1.67048 16.2183 2.31212 17.694 3.48871C19.1696 4.66529 20.2028 6.30731 20.6248 8.14669C18.8477 9.81935 16.4425 11.5347 14.1592 12.847C11.2894 14.4936 8.79988 15.5205 6.81449 16.0829C5.59166 14.9426 4.74052 13.4606 4.37187 11.8299C4.00322 10.1991 4.13414 8.49518 4.74759 6.93987C5.36104 5.38456 6.4286 4.04993 7.81128 3.10975C9.19396 2.16956 10.8277 1.66737 12.4998 1.66854ZM1.74371 16.1756C1.59163 15.9142 1.676 15.4216 1.97496 14.8217C2.27059 14.2596 2.63027 13.7336 3.04682 13.2542C3.45973 14.4504 4.09599 15.5573 4.9218 16.5162C3.12494 16.8182 2.00412 16.6256 1.74371 16.1756ZM12.4998 18.3326C11.0948 18.334 9.71249 17.9777 8.48322 17.2973C10.7395 16.4995 12.9166 15.4932 14.9863 14.2916C17.2342 13.0011 19.2237 11.6024 20.8268 10.2214C20.7675 12.391 19.8644 14.452 18.3096 15.9665C16.7547 17.4811 14.6706 18.3299 12.4998 18.3326ZM23.2726 4.55247C23.0956 5.20965 22.6279 5.96162 21.957 6.75316C21.5452 5.55557 20.9089 4.44742 20.0821 3.48805C21.5622 3.2433 22.9331 3.26204 23.2591 3.8255C23.3529 3.98901 23.3581 4.23377 23.2726 4.55247Z" fill="#B7B7B7"/>
</svg>
