<svg width="19" height="19" viewBox="0 0 19 19" fill="none" xmlns="http://www.w3.org/2000/svg">
<path d="M10.5962 9.49701C10.5962 9.71383 10.5319 9.92578 10.4114 10.1061C10.291 10.2863 10.1198 10.4269 9.91948 10.5098C9.71918 10.5928 9.49878 10.6145 9.28615 10.5722C9.07352 10.5299 8.8782 10.4255 8.7249 10.2722C8.5716 10.1189 8.4672 9.92354 8.42491 9.71088C8.38261 9.49823 8.40432 9.27781 8.48729 9.07749C8.57025 8.87718 8.71075 8.70597 8.89101 8.58551C9.07127 8.46505 9.2832 8.40075 9.5 8.40075C9.79072 8.40075 10.0695 8.51625 10.2751 8.72184C10.4807 8.92743 10.5962 9.20627 10.5962 9.49701ZM5.48077 8.40075C5.26397 8.40075 5.05204 8.46505 4.87178 8.58551C4.69152 8.70597 4.55102 8.87718 4.46805 9.07749C4.38509 9.27781 4.36338 9.49823 4.40568 9.71088C4.44797 9.92354 4.55237 10.1189 4.70567 10.2722C4.85897 10.4255 5.05429 10.5299 5.26692 10.5722C5.47955 10.6145 5.69995 10.5928 5.90025 10.5098C6.10054 10.4269 6.27174 10.2863 6.39219 10.1061C6.51263 9.92578 6.57692 9.71383 6.57692 9.49701C6.57692 9.20627 6.46144 8.92743 6.25587 8.72184C6.0503 8.51625 5.77149 8.40075 5.48077 8.40075ZM13.5192 8.40075C13.3024 8.40075 13.0905 8.46505 12.9102 8.58551C12.73 8.70597 12.5895 8.87718 12.5065 9.07749C12.4236 9.27781 12.4018 9.49823 12.4441 9.71088C12.4864 9.92354 12.5908 10.1189 12.7441 10.2722C12.8974 10.4255 13.0927 10.5299 13.3054 10.5722C13.518 10.6145 13.7384 10.5928 13.9387 10.5098C14.139 10.4269 14.3102 10.2863 14.4306 10.1061C14.5511 9.92578 14.6154 9.71383 14.6154 9.49701C14.6154 9.20627 14.4999 8.92743 14.2943 8.72184C14.0888 8.51625 13.8099 8.40075 13.5192 8.40075ZM19 9.49701C19.0004 11.1373 18.5761 12.7498 17.7684 14.1774C16.9608 15.6051 15.7974 16.7993 14.3913 17.6439C12.9853 18.4884 11.3845 18.9545 9.74494 18.9968C8.10533 19.0391 6.48271 18.6562 5.035 17.8852L1.92466 18.9221C1.66715 19.008 1.3908 19.0205 1.1266 18.9581C0.862394 18.8957 0.620777 18.761 0.428825 18.5691C0.236874 18.3771 0.102175 18.1354 0.0398246 17.8712C-0.0225255 17.607 -0.0100624 17.3306 0.075817 17.0731L1.1126 13.9624C0.434943 12.6883 0.0564492 11.2764 0.00584372 9.83409C-0.0447618 8.39176 0.233851 6.95686 0.820535 5.6383C1.40722 4.31975 2.28655 3.15218 3.39179 2.22424C4.49703 1.2963 5.79912 0.632369 7.19923 0.282843C8.59935 -0.0666822 10.0607 -0.0926152 11.4723 0.207013C12.8839 0.50664 14.2088 1.12395 15.3462 2.0121C16.4837 2.90024 17.4039 4.03587 18.037 5.33278C18.6701 6.62969 18.9994 8.0538 19 9.49701ZM17.5385 9.49701C17.5381 8.26384 17.2541 7.04727 16.7084 5.94143C16.1627 4.83559 15.3699 3.87013 14.3914 3.11974C13.4129 2.36935 12.2749 1.85415 11.0655 1.61399C9.85602 1.37383 8.60753 1.41515 7.41661 1.73477C6.22568 2.05438 5.12424 2.64371 4.19749 3.45717C3.27075 4.27062 2.54355 5.2864 2.07215 6.4259C1.60075 7.56541 1.3978 8.79809 1.47898 10.0286C1.56016 11.2591 1.92332 12.4544 2.54034 13.5221C2.59212 13.6117 2.62428 13.7114 2.63467 13.8144C2.64506 13.9174 2.63346 14.0214 2.60062 14.1196L1.46154 17.5362L4.87788 16.3971C4.9523 16.3717 5.03037 16.3587 5.10899 16.3587C5.23733 16.3589 5.36336 16.3929 5.47437 16.4573C6.6964 17.1644 8.0831 17.5372 9.49492 17.5381C10.9067 17.539 12.2939 17.168 13.5168 16.4624C14.7398 15.7569 15.7553 14.7416 16.4613 13.5189C17.1673 12.2961 17.5388 10.909 17.5385 9.49701Z" fill="#B7B7B7"/>
</svg>
