<svg width="20" height="20" viewBox="0 0 20 20" fill="none" xmlns="http://www.w3.org/2000/svg">
<g clip-path="url(#clip0_1287_2)">
<path d="M8.13199 19.375C7.78048 19.3735 7.43312 19.299 7.11199 19.156C5.50228 18.4533 4.11132 17.3304 3.08499 15.905C2.06692 14.4653 1.42604 12.7933 1.22099 11.042C1.02832 9.53534 1.14849 8.00512 1.57399 6.547C1.96285 5.22306 2.68205 4.01977 3.66395 3.05029C4.64586 2.0808 5.8582 1.37698 7.18699 1.005C9.23428 0.440159 11.4043 0.505325 13.414 1.192C14.5034 1.5692 15.4957 2.18295 16.3198 2.98918C17.1438 3.79541 17.7791 4.77411 18.18 5.855C18.4261 6.52647 18.6072 7.21997 18.721 7.926C18.9625 9.33752 18.9052 10.784 18.553 12.172C18.2243 13.4865 17.5125 14.6737 16.508 15.583C15.5112 16.4888 14.2551 17.0586 12.917 17.212C12.5744 17.245 12.2302 17.2594 11.886 17.255H11.449H11.132C11.0316 17.2545 10.9323 17.2763 10.8413 17.3188C10.7504 17.3614 10.67 17.4236 10.606 17.501L10.598 17.511C10.5337 17.5935 10.4809 17.6843 10.441 17.781C10.2569 18.2453 9.93965 18.6449 9.52921 18.9295C9.11877 19.2142 8.63338 19.3713 8.13399 19.381L8.13199 19.375Z" fill="#F83535"/>
<path d="M9.99398 1.25C11.0901 1.25474 12.1783 1.43572 13.217 1.786C14.2181 2.13366 15.1298 2.69862 15.8868 3.44034C16.6437 4.18206 17.2271 5.08215 17.595 6.076C17.828 6.70946 17.9998 7.36378 18.108 8.03C18.3346 9.35577 18.2808 10.7143 17.95 12.018C17.6507 13.2128 17.0034 14.2917 16.09 15.118C15.1897 15.9367 14.0549 16.452 12.846 16.591C12.5272 16.6211 12.2071 16.6341 11.887 16.63H11.455H11.135H11.13C10.9388 16.6304 10.75 16.6731 10.5772 16.7548C10.4043 16.8366 10.2516 16.9555 10.13 17.103L10.122 17.113L10.114 17.123C10.0152 17.2492 9.93378 17.3881 9.87198 17.536C9.73708 17.8895 9.49904 18.1942 9.18876 18.4107C8.87848 18.6272 8.51029 18.7454 8.13198 18.75C7.8665 18.7484 7.60426 18.6915 7.36198 18.583C6.60013 18.2505 5.88668 17.8165 5.24098 17.293C4.61591 16.7845 4.06137 16.195 3.59198 15.54C2.63512 14.1853 2.0331 12.6124 1.84098 10.965C1.65884 9.54321 1.77186 8.09914 2.17298 6.723C2.53144 5.50152 3.19467 4.39128 4.1003 3.49667C5.00593 2.60206 6.12421 1.95248 7.34998 1.609C8.21167 1.37347 9.10069 1.25276 9.99398 1.25ZM9.99398 0C8.99065 0.00133324 7.99192 0.135841 7.02398 0.4C5.59146 0.799015 4.28428 1.55658 3.22588 2.60116C2.16748 3.64573 1.3928 4.94284 0.974985 6.37C0.523631 7.90983 0.396287 9.52649 0.600985 11.118C0.793584 12.9775 1.47393 14.7531 2.57319 16.2652C3.67244 17.7773 5.1516 18.9722 6.86098 19.729C7.24423 19.9014 7.65859 19.9939 8.07878 20.0008C8.49896 20.0078 8.91615 19.929 9.30488 19.7694C9.69361 19.6097 10.0457 19.3725 10.3398 19.0723C10.6338 18.772 10.8635 18.415 11.015 18.023C11.0331 17.9778 11.057 17.9351 11.086 17.896C11.0911 17.8897 11.0975 17.8847 11.1047 17.8812C11.112 17.8778 11.1199 17.876 11.128 17.876C11.374 17.876 11.628 17.876 11.884 17.876C12.2513 17.8804 12.6185 17.8644 12.984 17.828C14.4501 17.6449 15.8258 17.0201 16.9282 16.0364C18.0307 15.0527 18.8077 13.7569 19.156 12.321C19.5307 10.8502 19.5917 9.31695 19.335 7.821C19.2149 7.07534 19.0234 6.34296 18.763 5.634C18.3294 4.46595 17.6422 3.4086 16.7508 2.53812C15.8594 1.66764 14.786 1.00571 13.608 0.6C12.4434 0.206887 11.2231 0.00428277 9.99398 0Z" fill="black"/>
<path d="M12.927 6.91699H6.41998C6.25422 6.91699 6.09525 6.85114 5.97804 6.73393C5.86083 6.61672 5.79498 6.45775 5.79498 6.29199C5.79498 6.12623 5.86083 5.96726 5.97804 5.85005C6.09525 5.73284 6.25422 5.66699 6.41998 5.66699H12.927C13.0927 5.66699 13.2517 5.73284 13.3689 5.85005C13.4861 5.96726 13.552 6.12623 13.552 6.29199C13.552 6.45775 13.4861 6.61672 13.3689 6.73393C13.2517 6.85114 13.0927 6.91699 12.927 6.91699Z" fill="black"/>
<path d="M10.621 10.66H6.42096C6.2552 10.66 6.09623 10.5942 5.97902 10.4769C5.86181 10.3597 5.79596 10.2008 5.79596 10.035C5.79596 9.86924 5.86181 9.71027 5.97902 9.59306C6.09623 9.47585 6.2552 9.41 6.42096 9.41H10.621C10.7867 9.41 10.9457 9.47585 11.0629 9.59306C11.1801 9.71027 11.246 9.86924 11.246 10.035C11.246 10.2008 11.1801 10.3597 11.0629 10.4769C10.9457 10.5942 10.7867 10.66 10.621 10.66Z" fill="black"/>
</g>
<defs>
<clipPath id="clip0_1287_2">
<rect width="20" height="20" fill="white"/>
</clipPath>
</defs>
</svg>
