<svg width="24" height="23" viewBox="0 0 24 23" fill="none" xmlns="http://www.w3.org/2000/svg">
<path d="M9.46378 1.72537L9.46432 1.72499C10.9106 0.711679 13.2005 0.76874 14.5909 1.84499C14.5914 1.84532 14.5918 1.84566 14.5922 1.846L20.3517 6.34086L20.3519 6.34102C20.7798 6.67483 21.2084 7.22643 21.5304 7.88046C21.8527 8.53505 22.0256 9.20554 22.0256 9.73901V17.6749C22.0256 20.0582 20.0897 22 17.712 22H5.3136C2.93306 22 1 20.0669 1 17.6864V9.88852C1 9.31072 1.19174 8.60392 1.54492 7.92741C1.89811 7.25088 2.36819 6.68998 2.83922 6.36026L9.46378 1.72537ZM9.65021 18.3995C9.65021 19.4232 10.4889 20.2621 11.5128 20.2621C12.5366 20.2621 13.3754 19.4233 13.3754 18.3995V14.9491C13.3754 13.9251 12.5365 13.0865 11.5128 13.0865C10.4889 13.0865 9.65021 13.9252 9.65021 14.9491V18.3995Z" fill="#F93535" stroke="black" stroke-width="2"/>
</svg>
