<svg width="20" height="20" viewBox="0 0 20 20" fill="none" xmlns="http://www.w3.org/2000/svg">
<g clip-path="url(#clip0_1287_14)">
<path d="M18.267 11.657C18.1471 11.89 17.9628 12.0837 17.736 12.215C16.736 12.871 15.729 13.534 14.729 14.184C13.3001 15.138 11.6438 15.6959 9.92902 15.801C9.66802 15.817 9.37702 15.819 9.06902 15.821C8.68302 15.821 8.28302 15.827 7.92902 15.859C6.25632 16.0201 4.63932 16.5461 3.19202 17.4L3.17702 17.407C3.1684 17.4083 3.15963 17.4083 3.15102 17.407C3.13391 17.407 3.11725 17.4016 3.10342 17.3915C3.08959 17.3815 3.07929 17.3673 3.07402 17.351L2.29102 15.06C2.28483 15.0436 2.28268 15.0259 2.28477 15.0085C2.28686 14.9911 2.29312 14.9745 2.30302 14.96C2.65402 14.411 3.01102 13.86 3.36302 13.31C3.80714 12.6225 4.41711 12.0578 5.13675 11.668C5.85639 11.2781 6.66256 11.0756 7.48102 11.079C7.60402 11.079 7.72902 11.079 7.85202 11.093C8.13702 11.113 8.34502 11.123 8.47102 11.123C9.29202 11.123 10.126 11.123 10.948 11.131C11.0952 11.1236 11.2423 11.1468 11.38 11.199C11.5053 11.2577 11.6109 11.3515 11.684 11.469C11.7572 11.5865 11.7947 11.7227 11.792 11.861C11.7937 11.9983 11.7555 12.1331 11.682 12.249C11.6085 12.3649 11.5029 12.457 11.378 12.514C11.2404 12.5654 11.0937 12.5882 10.947 12.581H9.57902H9.17902C9.03691 12.5736 8.89462 12.5919 8.75902 12.635C8.65005 12.6821 8.5575 12.7604 8.49306 12.8601C8.42862 12.9598 8.3952 13.0763 8.39702 13.195C8.39366 13.3196 8.42743 13.4425 8.49402 13.5479C8.56061 13.6533 8.65702 13.7365 8.77102 13.787C8.88596 13.8269 9.00746 13.8446 9.12902 13.839H10.439H11.021C11.4652 13.8461 11.8992 13.7057 12.255 13.4396C12.6107 13.1736 12.8682 12.7971 12.987 12.369C12.9956 12.3403 13.015 12.3159 13.041 12.301C14.25 11.585 15.478 10.858 16.691 10.142C16.8544 10.0465 17.0408 9.99737 17.23 10C17.4407 10.0011 17.6473 10.0581 17.8286 10.1653C18.0099 10.2725 18.1595 10.426 18.262 10.61C18.3482 10.7705 18.3938 10.9497 18.3947 11.1319C18.3955 11.3141 18.3517 11.4937 18.267 11.655V11.657Z" fill="#F83535"/>
<path d="M15.143 2.168C15.0865 1.96521 14.9786 1.78048 14.8296 1.63172C14.6807 1.48296 14.4958 1.37524 14.293 1.319C14.1227 1.27445 13.9469 1.25458 13.771 1.26H5.972C5.70457 1.25891 5.44353 1.34168 5.22559 1.49666C5.00765 1.65164 4.84377 1.87104 4.757 2.124C4.69728 2.39672 4.67374 2.67612 4.687 2.955C4.687 5.403 4.687 7.891 4.687 10.347C4.68617 10.3573 4.68747 10.3676 4.69081 10.3773C4.69414 10.387 4.69944 10.396 4.70638 10.4036C4.71333 10.4112 4.72176 10.4173 4.73115 10.4215C4.74055 10.4257 4.75071 10.4279 4.761 10.428C4.77417 10.4278 4.78713 10.4247 4.799 10.419C5.63036 10.0247 6.53886 9.81975 7.459 9.819C7.628 9.819 7.8 9.82599 7.97 9.83899C8.25 9.86099 8.47 9.87199 8.621 9.87199H10.879C11.1005 9.86589 11.322 9.88535 11.539 9.93C11.8041 9.99493 12.053 10.1134 12.2706 10.2782C12.4881 10.4429 12.6697 10.6505 12.804 10.888C12.8093 10.8977 12.8165 10.9062 12.8252 10.913C12.8339 10.9198 12.8439 10.9247 12.8546 10.9275C12.8654 10.9302 12.8765 10.9307 12.8874 10.9289C12.8983 10.9271 12.9087 10.923 12.918 10.917L15.143 9.6C15.1587 9.59115 15.1718 9.5782 15.1808 9.56253C15.1898 9.54686 15.1943 9.52905 15.194 9.51099V2.681C15.1989 2.50799 15.1787 2.33519 15.134 2.168H15.143ZM13.243 4.2C13.2018 4.38155 13.1397 4.55772 13.058 4.725C12.8382 5.2287 12.5064 5.67568 12.088 6.032C11.6711 6.37099 11.1796 6.60611 10.654 6.718C10.4122 6.7729 10.165 6.80074 9.917 6.801C9.20976 6.79146 8.52275 6.56364 7.94994 6.14872C7.37714 5.73379 6.94652 5.15202 6.717 4.483C6.63536 4.30543 6.61258 4.10642 6.652 3.915C6.69173 3.78337 6.77324 3.66827 6.88419 3.58708C6.99515 3.50589 7.12952 3.46304 7.267 3.465C7.37041 3.46377 7.47235 3.48961 7.56269 3.53996C7.65303 3.5903 7.72864 3.6634 7.782 3.752C7.787 3.762 7.813 3.82 7.929 4.136C8.02505 4.40475 8.17591 4.65062 8.372 4.858C8.62315 5.1277 8.93967 5.328 9.29093 5.43953C9.64218 5.55105 10.0163 5.57002 10.377 5.49459C10.7377 5.41917 11.0729 5.2519 11.35 5.00899C11.6272 4.76607 11.8369 4.45573 11.959 4.108C12.0012 3.97738 12.0537 3.85032 12.116 3.728C12.1686 3.64653 12.2409 3.57963 12.3262 3.53349C12.4115 3.48735 12.507 3.46345 12.604 3.464C12.7022 3.46461 12.7992 3.48657 12.8881 3.52835C12.977 3.57014 13.0558 3.63075 13.119 3.706C13.1759 3.77347 13.2166 3.85305 13.2381 3.93866C13.2596 4.02426 13.2613 4.11365 13.243 4.2Z" fill="#F83535"/>
<path d="M6.37202 -5.97793e-07H6.35902C6.07839 -0.00698599 5.79763 0.00671779 5.51902 0.0409994C5.02263 0.130509 4.56401 0.365444 4.20135 0.716C3.83869 1.06656 3.58832 1.51693 3.48202 2.01C3.43764 2.29071 3.41923 2.57491 3.42702 2.859V11.275C3.42691 11.2905 3.42357 11.3058 3.4172 11.3199C3.41082 11.334 3.40157 11.3467 3.39002 11.357C2.77516 11.9434 2.25017 12.6173 1.83202 13.357C1.82536 13.3693 1.81557 13.3797 1.80364 13.3871C1.7917 13.3945 1.77804 13.3986 1.76402 13.399C1.74731 13.3986 1.7312 13.3927 1.71818 13.3822C1.70517 13.3717 1.69597 13.3572 1.69202 13.341C1.67602 13.294 1.65902 13.241 1.64402 13.194C1.60929 13.0693 1.56135 12.9486 1.50102 12.834C1.44667 12.7455 1.37026 12.6726 1.27929 12.6225C1.18831 12.5723 1.08588 12.5467 0.982018 12.548C0.824288 12.5427 0.670447 12.5976 0.551756 12.7016C0.433065 12.8056 0.35843 12.9509 0.343018 13.108C0.350988 13.284 0.388512 13.4574 0.454018 13.621C1.10602 15.56 1.76802 17.52 2.42202 19.454C2.45603 19.574 2.51086 19.687 2.58402 19.788C2.64038 19.8545 2.71055 19.9079 2.78964 19.9445C2.86874 19.9811 2.95486 20 3.04202 20C3.13425 19.9988 3.22529 19.9789 3.30966 19.9416C3.39403 19.9043 3.47 19.8504 3.53302 19.783C3.58966 19.7218 3.63253 19.6491 3.65875 19.57C3.68497 19.4908 3.69393 19.4069 3.68502 19.324C3.66046 19.1767 3.61989 19.0325 3.56402 18.894C3.54402 18.837 3.52502 18.783 3.50702 18.73C3.50119 18.713 3.50151 18.6945 3.5079 18.6777C3.51429 18.6609 3.52636 18.6468 3.54202 18.638C4.09027 18.3192 4.65806 18.0354 5.24202 17.788C6.36706 17.3356 7.56649 17.0965 8.77902 17.083H9.05602C9.47102 17.083 9.90102 17.075 10.256 17.044C12.0269 16.9009 13.7353 16.3235 15.23 15.363C15.685 15.072 16.73 14.386 18.341 13.324C18.5704 13.1816 18.7848 13.0164 18.981 12.831C19.2465 12.5536 19.4419 12.2169 19.551 11.8488C19.6602 11.4807 19.6799 11.0919 19.6085 10.7147C19.5371 10.3374 19.3767 9.98269 19.1406 9.67993C18.9044 9.37718 18.5995 9.13516 18.251 8.974C17.9426 8.82847 17.606 8.75267 17.265 8.752C17.0266 8.75323 16.7894 8.78687 16.56 8.852C16.5511 8.85308 16.542 8.85308 16.533 8.852C16.522 8.85203 16.5111 8.84978 16.501 8.84539C16.4908 8.841 16.4817 8.83456 16.4742 8.82649C16.4667 8.81841 16.4609 8.80887 16.4573 8.79846C16.4536 8.78805 16.4522 8.777 16.453 8.766C16.453 6.772 16.453 4.757 16.453 2.779C16.4596 2.51569 16.4398 2.25238 16.394 1.993C16.2891 1.51846 16.0504 1.08395 15.706 0.740999C15.3623 0.394316 14.9247 0.15584 14.447 0.0549994C14.1666 0.0107212 13.8828 -0.00768963 13.599 -5.97793e-07H6.37202ZM9.87202 1.26H13.772C13.9479 1.25458 14.1237 1.27445 14.294 1.319C14.4969 1.37524 14.6817 1.48297 14.8307 1.63173C14.9796 1.78048 15.0875 1.96522 15.144 2.168C15.1887 2.3352 15.2089 2.508 15.204 2.681V9.513C15.203 9.53188 15.1966 9.55007 15.1856 9.56547C15.1746 9.58087 15.1595 9.59284 15.142 9.6L12.913 10.917C12.9038 10.923 12.8933 10.9271 12.8824 10.9289C12.8715 10.9307 12.8604 10.9302 12.8497 10.9275C12.839 10.9248 12.8289 10.9198 12.8202 10.913C12.8115 10.9062 12.8043 10.8977 12.799 10.888C12.6654 10.6517 12.485 10.445 12.2689 10.2807C12.0528 10.1163 11.8055 9.99768 11.542 9.932C11.325 9.88736 11.1035 9.8679 10.882 9.874H8.62402C8.47202 9.874 8.25302 9.863 7.97302 9.841C7.80202 9.827 7.63002 9.821 7.46202 9.821C6.54188 9.82176 5.63338 10.0267 4.80202 10.421C4.79015 10.4267 4.77719 10.4298 4.76402 10.43C4.75373 10.4299 4.74357 10.4277 4.73417 10.4235C4.72478 10.4193 4.71635 10.4132 4.70941 10.4056C4.70246 10.398 4.69716 10.389 4.69383 10.3793C4.69049 10.3696 4.68919 10.3593 4.69002 10.349C4.69002 7.892 4.69002 5.405 4.69002 2.957C4.67676 2.67813 4.7003 2.39872 4.76002 2.126C4.84623 1.87331 5.00936 1.65394 5.22653 1.49864C5.4437 1.34334 5.70403 1.25989 5.97102 1.26H9.87202ZM10.442 13.848H11.024C11.4682 13.8551 11.9022 13.7146 12.258 13.4486C12.6137 13.1826 12.8712 12.8061 12.99 12.378C12.9986 12.3492 13.018 12.3249 13.044 12.31C14.253 11.594 15.481 10.867 16.694 10.151C16.8553 10.053 17.0403 10.0008 17.229 10C17.4397 10.001 17.6463 10.0581 17.8276 10.1653C18.0089 10.2725 18.1585 10.426 18.261 10.61C18.3472 10.7705 18.3928 10.9497 18.3937 11.1319C18.3945 11.3141 18.3507 11.4937 18.266 11.655C18.1461 11.888 17.9618 12.0817 17.735 12.213C16.735 12.869 15.728 13.532 14.728 14.182C13.2991 15.1359 11.6429 15.6939 9.92802 15.799C9.66702 15.815 9.37602 15.817 9.06802 15.819C8.68202 15.819 8.28202 15.825 7.92802 15.857C6.25517 16.0187 4.63815 16.5454 3.19102 17.4L3.17602 17.407C3.1674 17.4083 3.15863 17.4083 3.15002 17.407C3.13291 17.407 3.11625 17.4016 3.10242 17.3915C3.08859 17.3814 3.0783 17.3673 3.07302 17.351L2.29002 15.06C2.28383 15.0436 2.28169 15.0259 2.28377 15.0085C2.28586 14.9911 2.29212 14.9745 2.30202 14.96C2.65302 14.411 3.01002 13.86 3.36202 13.31C3.80614 12.6225 4.41611 12.0578 5.13575 11.668C5.85539 11.2781 6.66156 11.0755 7.48002 11.079C7.60302 11.079 7.72802 11.079 7.85102 11.093C8.13602 11.113 8.34402 11.123 8.47002 11.123C9.29102 11.123 10.125 11.123 10.947 11.131C11.0942 11.1236 11.2413 11.1467 11.379 11.199C11.5043 11.2577 11.6099 11.3515 11.683 11.469C11.7562 11.5865 11.7937 11.7226 11.791 11.861C11.7927 11.9983 11.7545 12.1331 11.681 12.249C11.6075 12.3649 11.5019 12.457 11.377 12.514C11.2394 12.5654 11.0927 12.5882 10.946 12.581H9.57802H9.17802C9.03591 12.5735 8.89362 12.5918 8.75802 12.635C8.64905 12.6821 8.5565 12.7604 8.49206 12.8601C8.42762 12.9598 8.3942 13.0763 8.39602 13.195C8.39267 13.3196 8.42643 13.4424 8.49302 13.5479C8.55961 13.6533 8.65602 13.7365 8.77002 13.787C8.88497 13.8269 9.00646 13.8446 9.12802 13.839H10.438L10.442 13.848Z" fill="black"/>
<path d="M12.607 3.46299C12.51 3.46244 12.4145 3.48634 12.3292 3.53249C12.2439 3.57863 12.1716 3.64552 12.119 3.72699C12.0567 3.84932 12.0042 3.97638 11.962 4.10699C11.84 4.45473 11.6302 4.76507 11.3531 5.00798C11.0759 5.2509 10.7408 5.41816 10.38 5.49359C10.0193 5.56901 9.6452 5.55005 9.29394 5.43852C8.94269 5.327 8.62617 5.12669 8.37501 4.85699C8.17892 4.64961 8.02807 4.40375 7.93201 4.13499C7.81701 3.81899 7.79101 3.76199 7.78501 3.75099C7.73165 3.6624 7.65605 3.5893 7.56571 3.53895C7.47537 3.48861 7.37343 3.46277 7.27001 3.46399C7.13254 3.46203 6.99817 3.50489 6.88721 3.58608C6.77625 3.66726 6.69475 3.78237 6.65501 3.91399C6.6156 4.10541 6.63837 4.30442 6.72001 4.48199C6.94959 5.15117 7.38036 5.73306 7.95336 6.148C8.52637 6.56294 9.21361 6.79066 9.92101 6.79999C10.169 6.79974 10.4162 6.7719 10.658 6.71699C11.1836 6.6051 11.6751 6.36998 12.092 6.03099C12.5104 5.67468 12.8422 5.22769 13.062 4.72399C13.1419 4.55682 13.2023 4.38099 13.242 4.19999C13.2603 4.11364 13.2586 4.02426 13.2371 3.93865C13.2157 3.85304 13.1749 3.77347 13.118 3.70599C13.0545 3.6311 12.9757 3.57074 12.8868 3.52899C12.798 3.48723 12.7012 3.46507 12.603 3.46399L12.607 3.46299Z" fill="black"/>
</g>
<defs>
<clipPath id="clip0_1287_14">
<rect width="20" height="20" fill="white"/>
</clipPath>
</defs>
</svg>
