<svg width="23" height="23" viewBox="0 0 23 23" fill="none" xmlns="http://www.w3.org/2000/svg">
<g clip-path="url(#clip0_2_14)">
<path d="M20.9091 0H2.09091C1.53637 0 1.00453 0.220291 0.612413 0.612413C0.220291 1.00453 0 1.53637 0 2.09091V20.9091C0 21.4636 0.220291 21.9955 0.612413 22.3876C1.00453 22.7797 1.53637 23 2.09091 23H20.9091C21.4636 23 21.9955 22.7797 22.3876 22.3876C22.7797 21.9955 23 21.4636 23 20.9091V2.09091C23 1.53637 22.7797 1.00453 22.3876 0.612413C21.9955 0.220291 21.4636 0 20.9091 0ZM20.9091 10.4545H12.5455V2.09091H20.9091V10.4545ZM10.4545 2.09091V10.4545H2.09091V2.09091H10.4545ZM2.09091 12.5455H10.4545V20.9091H2.09091V12.5455ZM20.9091 20.9091H12.5455V12.5455H20.9091V20.9091Z" fill="#9DB2CE"/>
</g>
<defs>
<clipPath id="clip0_2_14">
<rect width="23" height="23" rx="2" fill="white"/>
</clipPath>
</defs>
</svg>
