<svg width="20" height="20" viewBox="0 0 20 20" fill="none" xmlns="http://www.w3.org/2000/svg">
<g clip-path="url(#clip0_1287_22)">
<path d="M9.99904 8.871C12.2761 8.871 14.122 7.02507 14.122 4.748C14.122 2.47093 12.2761 0.625 9.99904 0.625C7.72197 0.625 5.87604 2.47093 5.87604 4.748C5.87604 7.02507 7.72197 8.871 9.99904 8.871Z" fill="#F83535"/>
<path d="M10.044 19.375C9.16188 19.3759 8.28341 19.2612 7.43102 19.034C6.73102 18.848 4.41502 18.099 3.74502 16.279C3.59635 15.8604 3.55324 15.4116 3.61953 14.9724C3.68581 14.5332 3.85944 14.1171 4.12502 13.761C5.04279 12.66 6.31598 11.9138 7.72502 11.651C8.48317 11.4753 9.25878 11.386 10.037 11.385C11.468 11.3713 12.8818 11.6975 14.162 12.337C14.6601 12.5645 15.1076 12.8895 15.4781 13.2927C15.8486 13.696 16.1345 14.1694 16.319 14.685C16.481 15.2686 16.431 15.8907 16.178 16.441C15.9101 17.0191 15.4966 17.5178 14.978 17.888C13.5312 18.8913 11.8043 19.4117 10.044 19.375Z" fill="#F83535"/>
<path d="M9.99904 1.25C10.6913 1.25 11.368 1.45527 11.9435 1.83986C12.5191 2.22444 12.9677 2.77107 13.2326 3.41061C13.4975 4.05015 13.5668 4.75388 13.4318 5.43282C13.2967 6.11175 12.9634 6.73539 12.4739 7.22487C11.9844 7.71436 11.3608 8.0477 10.6819 8.18275C10.0029 8.3178 9.29919 8.24848 8.65965 7.98358C8.02011 7.71867 7.47348 7.27007 7.0889 6.6945C6.70431 6.11892 6.49904 5.44223 6.49904 4.75C6.49904 3.82174 6.86779 2.9315 7.52417 2.27513C8.18054 1.61875 9.07078 1.25 9.99904 1.25ZM9.99904 0C9.05997 0 8.142 0.278465 7.36119 0.800182C6.58039 1.3219 5.97182 2.06344 5.61246 2.93102C5.25309 3.7986 5.15907 4.75327 5.34227 5.67429C5.52547 6.59531 5.97768 7.44132 6.6417 8.10534C7.30572 8.76936 8.15173 9.22157 9.07275 9.40477C9.99377 9.58797 10.9484 9.49394 11.816 9.13458C12.6836 8.77521 13.4251 8.16665 13.9469 7.38585C14.4686 6.60504 14.747 5.68707 14.747 4.748C14.747 3.48875 14.2468 2.28108 13.3564 1.39066C12.466 0.500234 11.2583 0 9.99904 0Z" fill="black"/>
<path d="M10.038 10.763V12.013C11.3692 11.9987 12.6846 12.301 13.876 12.895C14.2967 13.0842 14.6758 13.3547 14.9915 13.6908C15.3073 14.027 15.5535 14.4223 15.716 14.854C15.8384 15.299 15.7995 15.773 15.606 16.192C15.3825 16.672 15.0379 17.0856 14.606 17.392C13.2663 18.3131 11.6703 18.7883 10.045 18.75C9.21755 18.7508 8.39353 18.6432 7.59401 18.43C6.31201 18.087 4.78301 17.285 4.33301 16.064C4.21971 15.7419 4.1878 15.3968 4.24015 15.0593C4.29249 14.7219 4.42745 14.4027 4.63301 14.13C5.46062 13.1521 6.60182 12.4915 7.86201 12.261C8.57403 12.097 9.30234 12.0141 10.033 12.014V10.764M10.033 10.764C9.20778 10.7643 8.38522 10.8579 7.58101 11.043C6.02775 11.3422 4.62739 12.1736 3.62101 13.394C3.29404 13.8324 3.08072 14.345 3.00011 14.8859C2.91949 15.4268 2.97409 15.9793 3.15901 16.494C3.77801 18.176 5.63601 19.199 7.27001 19.637C8.17532 19.878 9.10817 20.0001 10.045 20C11.9369 20.0383 13.7922 19.4764 15.345 18.395C15.9733 17.9898 16.4615 17.401 16.7433 16.7086C17.0251 16.0161 17.0868 15.2537 16.92 14.525C16.7185 13.9229 16.3948 13.3688 15.9693 12.8975C15.5437 12.4262 15.0255 12.0478 14.447 11.786C13.0785 11.1007 11.5665 10.7507 10.036 10.765L10.033 10.764Z" fill="black"/>
</g>
<defs>
<clipPath id="clip0_1287_22">
<rect width="20" height="20" fill="white"/>
</clipPath>
</defs>
</svg>
