<svg viewBox="0 0 134.7 37.6" xmlns="http://www.w3.org/2000/svg"><g fill="#fff"><path d="m9.7 21.7c0 .5 0 .9-.1 1.3-.1 1.2-.2 2.4-.3 3.6-.1 1.3-.2 2.5-.3 3.8q0 .4.4.4h3.9q.3 0 .4-.3c.2-1.9.3-3.8.5-5.7 0-.7.1-1.5.2-2.2 0-.2 0-.3-.2-.4-.4 0-.9-.2-1.3-.3 0 0-.2 0-.3-.2h6.2c.2 0 .3 0 .3-.3.1-1.4.2-2.7.4-4.1v-.2h-13.3c-.4 0-.6 0-.8-.4-.7-1.4-1.5-2.7-2.3-4 0-.1.2-.1.3-.1h12c2.9 0 5 1.4 6.4 3.9.7 1.2.9 2.5.8 3.8 0 1.1-.2 2.2-.3 3.3-.1 1.5-.3 3-.4 4.6-.3 3.9-4.2 7.3-8.1 7.3h-9.3q-.4 0-.4-.4c0-1.2.2-2.4.3-3.6.2-2 .3-3.9.5-5.9 0-1.1.2-2.3.3-3.4q0-.4.4-.4h4.2-.1z"/><path d="m25.1 23.8v-5.4c0-1.6.5-2.1 2.1-2.1s2.8 0 4.2.2c2 .3 3.1 1.6 3.1 3.7v6.9c0 2.6-1.6 4.2-4.2 4.3h-3.7c-.9 0-1.3-.4-1.5-1.3 0-.6 0-1.2-.1-1.8v-4.6h.1zm3.3 5.1h.6c1.9 0 2.4-.4 2.4-2.3v-5.3c0-1.7-.5-2.8-3-2.4v9.9z"/><path d="m103.7 22.2c.8-1.4 1.8-1.7 3.1-1.4s2.2 1.3 2.3 2.5c.2 2.2 0 4.5 0 6.7 0 1-.6 1.4-1.5 1.4s-1.5-.4-1.6-1.4c0-1.4 0-2.9-.2-4.3v-1.5c0-.4-.4-1-.6-1-.4 0-1 .3-1.1.6-.3.6-.4 1.3-.5 1.9 0 1.4 0 2.8-.2 4.1 0 1.1-.6 1.5-1.6 1.5s-1.4-.4-1.6-1.5c0-.6 0-1.2 0-1.8v-9c0-.5 0-1 0-1.5.2-1 .6-1.4 1.5-1.4s1.5.3 1.6 1.3c.2 1.4.2 2.9.2 4.5z"/><path d="m115.1 22.2c.5-1.2 1.4-1.6 2.5-1.6s2.1.6 2.6 1.7c0 .3.3.6.3.9v6.7c0 1.1-.7 1.5-1.7 1.5s-1.4-.5-1.4-1.5c0-1.6 0-3.1 0-4.7v-1c0-.4-.5-.9-.7-.9-.4 0-1 .3-1.1.6-.3.6-.4 1.3-.4 2 0 1.4 0 2.8-.2 4.1 0 1-.7 1.4-1.6 1.4s-1.5-.5-1.5-1.5v-8.2c0-.7.5-1.1 1.2-1.1s1.4 0 1.8.7c0 .2.2.5.4.8h-.1z"/><path d="m131.8 26.2c0 .8 0 1.6-.1 2.3-.4 2-1.8 3-4.2 3s-4.2-.7-4.5-3c-.3-1.7-.2-3.6 0-5.3.2-1.3 1.3-2.1 2.5-2.5 1.3-.4 2.6-.4 3.9.1 1.5.6 2.2 1.7 2.3 3.2v2 .2zm-3.3 0v-1.9c0-.8-.5-1.3-1.2-1.3s-1.2.4-1.3 1.1v4c0 .7.5 1.1 1.3 1 .7 0 1.1-.4 1.1-1.1v-1.9z"/><path d="m60.4 26.7v1.2c0 .6.2 1.1.8 1.3.7.2 1.2 0 1.7-.5.4-.6 1.1-.8 1.7-.7.5 0 1.2.3 1.3.6.2.4 0 1.1-.3 1.6 0 .2-.4.4-.7.6-1.9.9-3.8 1.1-5.7.3-1.3-.5-2.1-1.5-2.1-2.9s0-3.2.2-4.8c.2-1.3 1.1-2.1 2.5-2.5 1.6-.4 3.2-.3 4.7.5.6.3 1 1 1.4 1.5 0 .2.2.5.2.7.5 3.4-.3 3.2-2.7 3.2h-3zm-.3-1.7h2.9c0-.7.2-1.5-.6-1.9s-1.3-.2-1.6 0c-.4.3-.5 1.1-.7 1.8z"/><path d="m81.3 26.7v1.5c0 .6.5 1.1 1.1 1 .5 0 1.1-.2 1.3-.5.6-.7 1.4-.9 2.3-.7.8.1 1.1.7.9 1.5-.2.7-.8 1.2-1.4 1.4-1.6.6-3.3.8-5 .2-1.3-.4-2.2-1.3-2.4-2.7 0-1.5-.2-3.1 0-4.6.2-1.8 1.3-2.7 3.2-3.1 1.3-.2 2.6 0 3.9.4 1.1.4 1.6 1.2 1.8 2.3v.2c.4 3.1 0 3.2-2.6 3.1-1 0-2 0-3.2 0zm2.8-1.7c0-.7.2-1.5-.6-1.8-.5-.2-1.2-.2-1.6 0-.7.4-.5 1.1-.5 1.8z"/><path d="m39.8 26.7v1.5c0 .5.4 1.1 1 1 .5 0 1.1-.1 1.4-.5.5-.5 1-.8 1.7-.8s1.2.2 1.3.5c.2.4 0 1.1-.2 1.6 0 .2-.4.5-.6.6-2.1 1-4.1 1.2-6.2 0-.9-.5-1.5-1.2-1.6-2.2 0-1.6-.2-3.1 0-4.7.2-1.9 1.2-2.7 3-3.1 1.5-.3 3-.2 4.3.6.6.3 1 1 1.4 1.6v.5c.6 2.7 0 3.3-2.6 3.3h-3.2zm0-1.7h2.6c.2-1.5-.2-2.1-1.2-2.1s-1.4.5-1.3 2.1z"/><path d="m70.8 19.5c-.8 0-1.6-.1-2.3-.2-.8 0-1.2-.5-1.3-1.3 0-.8.3-1.3 1-1.5.2 0 .4-.1.6-.1h7.1c.9 0 1.5.5 1.7 1.2.2 1-.3 1.6-1.3 1.8-.4 0-.8 0-1.1.1h-1.1v10.2c0 1.4-.7 2-2 1.8-.8-.2-1.2-.7-1.2-1.8v-10.1z"/><path d="m92.2 26.1c0 .7 0 1.5.2 2.2 0 .7.6 1 1.2 1s1.1-.4 1.2-1.1c0-.5 0-1.1.7-1.1s1.6 0 2.3.2c.5.1.5 1.6 0 2.3-.4.5-.8 1-1.3 1.2-1.7.8-3.5.9-5.3.2-1.1-.5-1.9-1.4-2-2.5 0-1.6-.2-3.1 0-4.7.2-1.9 1.3-2.9 3.2-3 1.3 0 2.6.1 3.8.5 1.3.4 2 1.8 1.9 3.1 0 .6-.3 1-.8 1h-1.5c-.6 0-.9-.5-1-1.1-.2-1.1-.7-1.4-1.8-1.1-.3.1-.6.6-.7 1v1.9z"/><path d="m51.5 26.1c.4-1.3.7-2.6 1.1-3.8.3-1 1-1.6 1.7-1.6 1 0 1.7 1.1 1.3 2.2-.9 2.5-1.9 5-2.9 7.6-.2.6-.6 1-1.4 1s-1.2-.5-1.5-1.2c-.8-1.9-1.5-3.8-2.2-5.7-.2-.6-.5-1.2-.6-1.8-.3-1 0-1.8.8-2.1.9-.3 1.7 0 2.1 1.1.4 1 .7 2.1 1 3.2 0 .4.2.7.3 1.1z"/></g><text fill="#e2e2e2" font-family="Poppins-Regular, Poppins" font-size="12" transform="translate(42.3 10.6)"><tspan x="0" y="0">Made By</tspan></text></svg>